name C:\Users\u0101727\Documents\MyRepositories\upper-imu-dc\Results\main_tracking\Case_27\kinematics.mot
datacolumns 10
datarows 23
range 1.70000000 1.92000000
endheader 
time	clav_prot	clav_elev	scapula_abduction	scapula_elevation	scapula_upward_rot	scapula_winging	plane_elv	shoulder_elv	axial_rot	
          1.70000000	        -22.17270351	          8.32317679	         -1.84214792	          0.75063446	         33.52236816	         -2.46584257	        -25.81048864	          6.64357379	         68.98186747	
          1.71000000	        -22.19705625	          8.24927509	         -1.91503918	          0.70920457	         33.44881668	         -2.44237724	        -25.55753660	          6.73586914	         68.64162495	
          1.72000000	        -22.19956751	          8.15187862	         -1.94510196	          0.65353028	         33.36741362	         -2.41521802	        -25.33058895	          6.83878634	         68.32693810	
          1.73000000	        -22.18477923	          8.04678042	         -1.94506251	          0.59429026	         33.28062498	         -2.38593048	        -25.13600588	          6.94417422	         68.04692322	
          1.74000000	        -22.15692599	          7.94738361	         -1.92508377	          0.54024183	         33.19212166	         -2.35638873	        -24.97873021	          7.04293015	         67.81031880	
          1.75000000	        -22.12213570	          7.86198916	         -1.89651249	          0.49632533	         33.10573687	         -2.32824700	        -24.86067426	          7.12691031	         67.62817190	
          1.76000000	        -22.08141091	          7.79180620	         -1.85772594	          0.46246584	         33.02636695	         -2.30295615	        -24.78415541	          7.18822340	         67.51331098	
          1.77000000	        -22.10693591	          7.74119775	         -1.93867431	          0.43710690	         32.95702581	         -2.28124844	        -24.74934487	          7.22234727	         67.46827795	
          1.78000000	        -22.02904826	          7.69778948	         -1.82872995	          0.42138966	         32.89602368	         -2.26282673	        -24.75825498	          7.23153751	         67.48295034	
          1.79000000	        -22.23801766	          7.69749998	         -2.25405561	          0.42012457	         32.83586938	         -2.24637965	        -24.81375438	          7.22618501	         67.52449333	
          1.80000000	        -21.93892475	          7.67657435	         -1.75836186	          0.43472021	         32.76779126	         -2.22907982	        -24.92756370	          7.22156404	         67.55724897	
          1.81000000	        -22.37298815	          7.72103583	         -2.62681373	          0.45709051	         32.68429839	         -2.20923276	        -25.10575511	          7.23450572	         67.55022451	
          1.82000000	        -22.21606710	          7.71897465	         -2.41980645	          0.48286672	         32.58598190	         -2.18347178	        -25.35760480	          7.26790135	         67.48902358	
          1.83000000	        -22.15858580	          7.72507370	         -2.40788650	          0.51167074	         32.47213996	         -2.15449440	        -25.68087378	          7.32286208	         67.36458941	
          1.84000000	        -22.14683841	          7.72402305	         -2.48756074	          0.53553539	         32.34325999	         -2.12087352	        -26.07392127	          7.40219615	         67.17880061	
          1.85000000	        -22.13759014	          7.70235836	         -2.57578558	          0.54739391	         32.19860501	         -2.08153363	        -26.52066141	          7.50633068	         66.94194055	
          1.86000000	        -22.12999841	          7.65249042	         -2.66718550	          0.54164802	         32.03911535	         -2.03616054	        -26.99558248	          7.62921208	         66.67510325	
          1.87000000	        -21.87802093	          7.54906914	         -2.30543962	          0.51379474	         31.86635611	         -1.98551177	        -27.46177293	          7.76030459	         66.41012779	
          1.88000000	        -22.14138753	          7.44723196	         -2.88325236	          0.45935475	         31.68427469	         -1.92755797	        -27.88281411	          7.88608792	         66.17761875	
          1.89000000	        -22.12144814	          7.28534203	         -2.93353596	          0.37995017	         31.49096267	         -1.86411213	        -28.22280516	          7.99761317	         66.00264562	
          1.90000000	        -22.11545444	          7.08325956	         -2.99752984	          0.27179000	         31.29195659	         -1.79510490	        -28.45741809	          8.08202398	         65.90415565	
          1.91000000	        -22.10816432	          6.83735259	         -3.04369412	          0.13236366	         31.09103233	         -1.72070940	        -28.57352004	          8.13261718	         65.88894365	
          1.92000000	        -22.09265877	          6.54350083	         -3.05526721	         -0.04177589	         30.89238341	         -1.64089948	        -28.57426754	          8.14782729	         65.94915671	
